<svg xmlns="http://www.w3.org/2000/svg" width="20" height="13.81" viewBox="0 0 20 13.81">
  <metadata><?xpacket begin="﻿" id="W5M0MpCehiHzreSzNTczkc9d"?>
<x:xmpmeta xmlns:x="adobe:ns:meta/" x:xmptk="Adobe XMP Core 5.6-c138 79.159824, 2016/09/14-01:09:01        ">
   <rdf:RDF xmlns:rdf="http://www.w3.org/1999/02/22-rdf-syntax-ns#">
      <rdf:Description rdf:about=""/>
   </rdf:RDF>
</x:xmpmeta>
<?xpacket end="w"?></metadata>
<defs>
    <style>
      .cls-1 {
        fill: #c6cacc;
        fill-rule: evenodd;
      }
    </style>
  </defs>
  <path class="cls-1" d="M1035,2799.28a0.1,0.1,0,0,1-.04-0.03,3.646,3.646,0,0,0-2.64-.94l-0.03-.07h0.02a3.177,3.177,0,0,0,1.62-.63,0.2,0.2,0,0,0-.21-0.3,5.915,5.915,0,0,0-1.27.29q0.72-.435.57-0.6a2.539,2.539,0,0,0-1.53.69,0.775,0.775,0,0,0,.23-0.52,4.1,4.1,0,0,0-.68.53,10.862,10.862,0,0,0-.97,1.19l-0.02.03a10.3,10.3,0,0,0-1.36,2.98l-0.1.07-0.01.02a4.974,4.974,0,0,0-1.41-1.15,16.939,16.939,0,0,0-2.3-1.16,20.151,20.151,0,0,0-2.94-1.16,2.759,2.759,0,0,0,1.62,2.49v0.02a3.425,3.425,0,0,0-1.11.15c0.07,0.97.8,1.64,2.18,2.01v0.02a1.629,1.629,0,0,0-1.34.52,2.424,2.424,0,0,0,2.42,1.21,1.6,1.6,0,0,0-.53.37,0.738,0.738,0,0,0-.21.74,1.356,1.356,0,0,0,1.36.6h0l0.04,0.04a0.038,0.038,0,0,0-.02.02,5.219,5.219,0,0,1-4.14,1.51l-0.02.01a5.36,5.36,0,0,1-3.18-1.34,9.81,9.81,0,0,0,4.55,3.39,11.407,11.407,0,0,0,6.47.14h0.03a10.212,10.212,0,0,0,5.32-3.5,6.991,6.991,0,0,0,1.27-2.66,2.665,2.665,0,0,0,2.36-.89l-0.01-.02a4.959,4.959,0,0,1-2.13-.12v-0.11h0.01c1.15-.12,1.83-0.47,2.05-1.06a3.367,3.367,0,0,1-2.38.03A4.837,4.837,0,0,0,1035,2799.28Z" transform="translate(-1019 -2797)"/>
</svg>
